<?xml version="1.0" encoding="utf-8"?>
<!-- Generator: Adobe Illustrator 17.0.0, SVG Export Plug-In . SVG Version: 6.00 Build 0)  -->
<!DOCTYPE svg PUBLIC "-//W3C//DTD SVG 1.1//EN" "http://www.w3.org/Graphics/SVG/1.1/DTD/svg11.dtd">
<svg version="1.1" id="Layer_2" xmlns="http://www.w3.org/2000/svg" xmlns:xlink="http://www.w3.org/1999/xlink" x="0px" y="0px"
	 width="24.656px" height="26.969px" viewBox="23.906 11 24.656 26.969" style="enable-background:new 23.906 11 24.656 26.969;"
	 xml:space="preserve">
<style type="text/css">
	.st0{fill:#70AFA5;}
</style>
<path class="st0" d="M46.294,31.258c0.997,0.997,0.997,2.614,0,3.611l0,0c-0.997,0.997-2.614,0.997-3.611,0L25.799,17.986
	c-0.997-0.997-0.997-2.614,0-3.611l0,0c0.997-0.997,2.614-0.997,3.611,0L46.294,31.258z"/>
<path class="st0" d="M47.757,22.113c0.922,0.922,0.922,2.418,0,3.34l0,0c-0.922,0.922-2.418,0.922-3.34,0l-5.573-5.573
	c-0.922-0.922-0.922-2.418,0-3.34l0,0c0.922-0.922,2.418-0.922,3.34,0L47.757,22.113z"/>
<path class="st0" d="M33.676,28.883c0.922,0.922,0.922,2.418,0,3.34l0,0c-0.922,0.922-2.418,0.922-3.34,0l-5.573-5.573
	c-0.922-0.922-0.922-2.418,0-3.34l0,0c0.922-0.922,2.418-0.922,3.34,0L33.676,28.883z"/>
<circle class="st0" cx="36.047" cy="13.626" r="2.459"/>
<circle class="st0" cx="36.827" cy="35.374" r="2.459"/>
</svg>
